<?xml version="1.0" encoding="UTF-8"?> <svg xmlns="http://www.w3.org/2000/svg" width="224" height="70" viewBox="0 0 224 70" fill="none"><g id="Higher Ground Horz"><rect width="224" height="70" fill="white"></rect><g id="Group"><path id="Vector" d="M76.2329 64.1506C56.3836 64.7259 51.3014 48.5205 51.3014 37.2054C51.3014 17.8355 63.6713 9.30129 76.2329 9.01361V18.9862C71.4384 19.4657 63.5754 22.9177 63.5754 35.9588C63.5754 48.9999 64.2466 43.3424 65.0137 45.3561C67.7945 53.0273 73.4521 53.6027 76.2329 53.8903V63.9588V64.1506ZM77.0959 33.6574H100.685L100.206 62.8081H91.863L91.2877 56.5753C86.5891 62.7122 81.2192 63.5753 78.1507 64.0547V54.0821C81.9863 53.6027 87.7397 52.452 90.137 43.2465H77.0959V33.7533V33.6574ZM88.9863 27.5205C86.9726 20.9999 83.4247 19.4657 78.2466 18.9862V8.91772C81.411 9.10951 84.2877 9.2054 88.2192 10.8355C95.411 13.7122 99.3425 19.0821 100.589 26.8492L89.0822 27.5205H88.9863Z" fill="#00437B"></path><path id="Vector_2" d="M9.49317 62.7122L9.30139 15.4383L21 10.6438L21.3836 62.6164H9.49317V62.7122ZM22.9178 40.5616V30.7807H40.0822V10.5479L51.3014 6.04102L51.9726 62.7122H40.1781V40.5616H22.9178Z" fill="#E82C2A"></path><path id="Vector_3" d="M63.7671 34.8082L56.1918 40.2739L59.0685 49.1917L51.4931 43.726L43.9178 49.1917L46.7945 40.2739L39.2192 34.8082H48.5205L51.3973 25.8904L54.274 34.8082H63.5753H63.7671Z" fill="white"></path></g><g id="Group_2"><path id="Vector_4" d="M135.205 39.9863C134.63 39.5068 133.959 39.1233 133.288 38.8356C132.521 38.5479 131.849 38.452 131.082 38.452C130.315 38.452 129.644 38.5479 128.877 38.8356C128.11 39.1233 127.534 39.5068 126.959 39.9863C126.384 40.4657 125.904 41.137 125.521 41.9041C125.137 42.6712 124.945 43.5342 124.945 44.589V57.9178C124.945 58.9726 125.137 59.8356 125.521 60.6027C125.904 61.3698 126.384 62.0411 126.959 62.5205C127.534 63 128.205 63.3835 128.877 63.6712C129.644 63.9589 130.315 64.0548 131.082 64.0548C131.849 64.0548 132.521 63.9589 133.288 63.6712C134.055 63.3835 134.63 63 135.205 62.5205C135.781 62.0411 136.26 61.3698 136.644 60.6027C137.027 59.8356 137.219 58.9726 137.219 57.9178V49.9589H130.699V53.1233H133.575V57.9178C133.575 58.7808 133.288 59.452 132.808 59.8356C132.329 60.2192 131.753 60.4109 131.082 60.4109C130.411 60.4109 129.836 60.2192 129.356 59.8356C128.877 59.452 128.589 58.7808 128.589 57.9178V44.589C128.589 43.726 128.877 43.0548 129.356 42.6712C129.836 42.2876 130.411 42.0959 131.082 42.0959C131.753 42.0959 132.329 42.2876 132.808 42.6712C133.288 43.0548 133.575 43.726 133.575 44.589V45.8356H137.219V44.589C137.219 43.5342 137.027 42.6712 136.644 41.9041C136.26 41.137 135.781 40.4657 135.205 39.9863Z" fill="#00437B"></path><path id="Vector_5" d="M149.877 52.3562C151.027 51.6849 151.89 50.9178 152.274 49.863C152.753 48.8082 152.945 47.5617 152.945 46.1233C152.945 41.2329 150.836 38.7397 146.521 38.7397H140.671V63.9589H144.315V53.2192H146.521L149.877 63.9589H153.712L149.781 52.4521L149.877 52.3562ZM149.301 47.6576C149.301 48.137 149.11 48.5206 148.918 48.9041C148.726 49.1918 148.438 49.4795 148.055 49.6713C147.671 49.863 147.192 49.9589 146.521 49.9589H144.507V42.0959H146.425C147.096 42.0959 147.575 42.0959 148.055 42.3836C148.438 42.5754 148.726 42.7671 149.014 43.1507C149.205 43.5343 149.397 43.9178 149.493 44.3973C149.493 44.8767 149.589 45.4521 149.589 46.1233C149.589 46.7945 149.589 47.3699 149.493 47.8493L149.301 47.6576Z" fill="#00437B"></path><path id="Vector_6" d="M167.808 41.9041C167.425 41.137 166.945 40.4657 166.37 39.9863C165.795 39.5068 165.123 39.1233 164.452 38.8356C163.685 38.5479 163.014 38.452 162.247 38.452C161.479 38.452 160.808 38.5479 160.041 38.8356C159.274 39.1233 158.699 39.5068 158.123 39.9863C157.548 40.4657 157.068 41.137 156.685 41.9041C156.301 42.6712 156.11 43.5342 156.11 44.589V57.9178C156.11 58.9726 156.301 59.8356 156.685 60.6027C157.068 61.3698 157.548 62.0411 158.123 62.5205C158.699 63 159.37 63.3835 160.041 63.6712C160.808 63.9589 161.479 64.0548 162.247 64.0548C163.014 64.0548 163.685 63.9589 164.452 63.6712C165.219 63.3835 165.795 63 166.37 62.5205C166.945 62.0411 167.425 61.3698 167.808 60.6027C168.192 59.8356 168.384 58.9726 168.384 57.9178V44.589C168.384 43.5342 168.192 42.6712 167.808 41.9041ZM164.74 57.9178C164.74 58.7808 164.452 59.452 163.973 59.8356C163.493 60.2192 162.918 60.4109 162.247 60.4109C161.575 60.4109 161 60.2192 160.521 59.8356C160.041 59.452 159.753 58.7808 159.753 57.9178V44.589C159.753 43.726 160.041 43.0548 160.521 42.6712C161 42.2876 161.575 42.0959 162.247 42.0959C162.918 42.0959 163.493 42.2876 163.973 42.6712C164.452 43.0548 164.74 43.726 164.74 44.589V57.9178Z" fill="#00437B"></path><path id="Vector_7" d="M180.082 57.8219C180.082 58.6849 179.89 59.3561 179.411 59.8356C179.027 60.2191 178.452 60.5068 177.781 60.5068C177.11 60.5068 176.63 60.315 176.151 59.8356C175.767 59.452 175.479 58.7808 175.479 57.8219V38.6438H171.836V58.2054C171.836 59.0685 172.027 59.8356 172.315 60.5068C172.603 61.178 173.082 61.8493 173.562 62.3287C174.137 62.9041 174.712 63.2876 175.384 63.5753C176.055 63.863 176.822 64.0548 177.685 64.0548C178.548 64.0548 179.219 63.863 179.986 63.5753C180.658 63.2876 181.329 62.8082 181.808 62.3287C182.384 61.7534 182.767 61.178 183.055 60.5068C183.342 59.8356 183.534 59.0685 183.534 58.2054V38.6438H179.89V57.8219H180.082Z" fill="#00437B"></path><path id="Vector_8" d="M196.479 53.8904H196.384L190.918 38.6438H187.466V63.863H191.11V48.7123L196.671 63.863H200.123V38.6438H196.479V53.8904Z" fill="#00437B"></path><path id="Vector_9" d="M213.931 40.3698C212.877 39.2191 211.247 38.6438 209.233 38.6438H203.863V63.863H208.849C210.959 63.863 212.685 63.2876 213.836 62.137C214.986 60.9863 215.562 59.2602 215.562 56.9589V45.1643C215.562 43.1506 214.986 41.5205 213.931 40.3698ZM211.918 57.3424C211.918 58.3972 211.726 59.2602 211.247 59.7397C210.863 60.2191 210.096 60.5068 209.041 60.5068H207.411V42.0959H209.041C210.096 42.0959 210.863 42.3835 211.247 42.863C211.63 43.4383 211.822 44.2054 211.822 45.1643V57.3424H211.918Z" fill="#00437B"></path><path id="Vector_10" d="M133.575 18.7946H129.164V7.95898H125.521V33.1782H129.164V21.959H133.575V33.1782H137.219V7.95898H133.575V18.7946Z" fill="#FF0000"></path><path id="Vector_11" d="M144.699 7.95898H141.055V33.1782H144.699V7.95898Z" fill="#FF0000"></path><path id="Vector_12" d="M158.411 9.30134C157.836 8.82188 157.164 8.43832 156.493 8.15065C155.726 7.86298 155.055 7.76709 154.288 7.76709C153.521 7.76709 152.849 7.86298 152.082 8.15065C151.315 8.43832 150.74 8.82188 150.164 9.30134C149.589 9.78079 149.11 10.452 148.726 11.2191C148.342 11.9863 148.151 12.8493 148.151 13.9041V27.2328C148.151 28.2876 148.342 29.1507 148.726 29.9178C149.11 30.6849 149.589 31.3561 150.164 31.8356C150.74 32.315 151.411 32.6986 152.082 32.9863C152.849 33.2739 153.521 33.3698 154.288 33.3698C155.055 33.3698 155.726 33.2739 156.493 32.9863C157.26 32.6986 157.836 32.315 158.411 31.8356C158.986 31.3561 159.466 30.6849 159.849 29.9178C160.233 29.1507 160.425 28.2876 160.425 27.2328V19.2739H153.904V22.4383H156.781V27.2328C156.781 28.0959 156.493 28.7671 156.014 29.1507C155.534 29.5342 154.959 29.726 154.288 29.726C153.616 29.726 153.041 29.5342 152.562 29.1507C152.082 28.7671 151.795 28.0959 151.795 27.2328V13.9041C151.795 13.0411 152.082 12.3698 152.562 11.9863C153.041 11.6027 153.616 11.4109 154.288 11.4109C154.959 11.4109 155.534 11.6027 156.014 11.9863C156.493 12.3698 156.781 13.0411 156.781 13.9041V15.1507H160.425V13.9041C160.425 12.8493 160.233 11.9863 159.849 11.2191C159.466 10.452 158.986 9.78079 158.411 9.30134Z" fill="#FF0000"></path><path id="Vector_13" d="M171.932 18.7946H167.521V7.95898H163.877V33.1782H167.521V21.959H171.932V33.1782H175.575V7.95898H171.932V18.7946Z" fill="#FF0000"></path><path id="Vector_14" d="M202.712 21.6711C203.863 20.9999 204.726 20.2328 205.11 19.178C205.589 18.1232 205.781 16.8766 205.781 15.4382C205.781 10.5478 203.671 8.05469 199.356 8.05469H193.507V33.2739H197.151V22.5341H199.356L202.712 33.2739H206.548L202.616 21.767L202.712 21.6711ZM202.137 16.9725C202.137 17.4519 201.945 17.8355 201.753 18.2191C201.562 18.5067 201.274 18.7944 200.89 18.9862C200.507 19.178 200.027 19.2739 199.356 19.2739H197.342V11.4109H199.26C199.931 11.4109 200.411 11.4109 200.89 11.6985C201.274 11.8903 201.562 12.0821 201.849 12.4656C202.137 12.8492 202.233 13.2328 202.329 13.7122C202.329 14.1917 202.425 14.767 202.425 15.4382C202.425 16.1095 202.425 16.6848 202.329 17.1643L202.137 16.9725Z" fill="#FF0000"></path><path id="Vector_15" d="M179.219 33.1782H189.959V29.6302H182.767V22.1508H189V18.7946H182.767V11.411H189.959V7.95898H179.219V33.1782Z" fill="#FF0000"></path></g><path id="Vector_16" d="M112.959 63.2876V7.76709" stroke="#00437B" stroke-width="2.63014" stroke-miterlimit="10"></path></g></svg> 